<svg version="1.2" xmlns="http://www.w3.org/2000/svg" viewBox="0 0 1080 1080" width="1080" height="1080">
	<style>
		.s0 { fill: none;stroke: #000000;stroke-linecap: round;stroke-linejoin: round;stroke-width: 45 } 
		.s1 { fill: #000000 } 
	</style>
	<g id="Layer 1">
		<path id="Shape 1" fill-rule="evenodd" class="s0" d="m232.05 380.36c0 0-111.84-189.79-67.23-233.33 44.62-43.55 166.54 63.07 166.54 63.07"/>
		<path id="Shape 2" fill-rule="evenodd" class="s0" d="m786.48 190.85c0 0 116.39-138.76 166.96-97.54 50.57 41.22-47.43 272.35-47.43 272.35"/>
		<path id="Shape 3" fill-rule="evenodd" class="s0" d="m380.15 812.62c0 0-173.06-25.98-222.86-184.38-49.8-158.4 109.34-427.19 407.14-472.17 297.8-44.99 473.98 313.1 414.96 471.6-59.01 158.49-225.34 228.67-412.09 253.09-129.73 16.96-286.39-44.16-286.39-44.16"/>
		<path id="Shape 4" fill-rule="evenodd" class="s0" d="m96.66 574.76l99.36 8.36"/>
		<path id="Shape 5" fill-rule="evenodd" class="s0" d="m117.76 684.4l99.37-42.02"/>
		<path id="Shape 6" fill-rule="evenodd" class="s0" d="m924.09 490.32l104.54-22.98"/>
		<path id="Shape 7" fill-rule="evenodd" class="s0" d="m929.68 540l99.77 5.71"/>
		<path id="Shape 8" fill-rule="evenodd" class="s0" d="m509.73 540l82.75-11"/>
		<path id="Shape 9" fill-rule="evenodd" class="s0" d="m554.97 571.18l-2.2 129.64c0 0 30.57 18.4 59.22 13.98 43.76-6.76 47.54-30.67 47.54-30.67"/>
		<path id="Shape 10" fill-rule="evenodd" class="s0" d="m423.85 685.83c0 0 10.51 21.82 38.66 31.72 28.15 9.9 93.58-25.67 93.58-25.67"/>
		<path id="Shape 11" fill-rule="evenodd" class="s1" d="m398.35 403.34c48.27-3.94 56.51 34.96 56.32 47.85-0.18 12.9-20.15 45.71-58.25 47.96-39.94 2.37-49.69-38.9-49.69-38.9-4.76-26.94 3.35-52.96 51.62-56.91z"/>
		<path id="Shape 11 copy" fill-rule="evenodd" class="s1" d="m690.87 474.28c-50.37-9.92-47.55-51.97-43.63-65.07 3.91-13.1 33.75-40.79 73.26-32.1 41.41 9.12 39.44 54.03 39.44 54.03-2.92 28.85-18.7 53.05-69.07 43.14z"/>
	</g>
</svg>